PathFileType	4	(X/Y/Z)	/Users/niels/Desktop/University/Third Semester/Perception and Action/Exam/Gymnastics Motion Tracking/Code for Gym Tracking/Analyzed Data/Backflip/id1_3_pettlep_Sports2D/id1_3_pettlep_Sports2D_px_person00.trc
DataRate	CameraRate	NumFrames	NumMarkers	Units	OrigDataRate	OrigDataStartFrame	OrigNumFrames
59.90876837303599	59.90876837303599	7	22	m	59.90876837303599	24	198
Frame#	Time	Hip			RHip			RKnee			RAnkle			RBigToe			RSmallToe			RHeel			LHip			LKnee			LAnkle			LBigToe			LSmallToe			LHeel			Neck			Head			Nose			RShoulder			RElbow			RWrist			LShoulder			LElbow			LWrist		
		X1	Y1	Z1	X2	Y2	Z2	X3	Y3	Z3	X4	Y4	Z4	X5	Y5	Z5	X6	Y6	Z6	X7	Y7	Z7	X8	Y8	Z8	X9	Y9	Z9	X10	Y10	Z10	X11	Y11	Z11	X12	Y12	Z12	X13	Y13	Z13	X14	Y14	Z14	X15	Y15	Z15	X16	Y16	Z16	X17	Y17	Z17	X18	Y18	Z18	X19	Y19	Z19	X20	Y20	Z20	X21	Y21	Z21	X22	Y22	Z22
24	0.40060913705583756	1.07929473748227	-0.5283299695954099	0.0	1.073282778012784	-0.5282320772991873	0.0	1.0680216035025194	-0.6249104987053707	0.0	1.047819710772215	-0.7122421840216974	0.0	1.0808406328740283	-0.7159907978467737	0.0	1.075342893660578	-0.7191671975440093	0.0	1.0443350325151894	-0.7201717034571907	0.0	1.0803632091125488	-0.5288260602907042	0.0	1.0740425909438969	-0.6248417358648686	0.0	1.0526305823427777	-0.7087308740104787	0.0	1.0864349258870933	-0.7142327275380316	0.0	1.0795413571737664	-0.7122092850500762	0.0	1.0399377296675814	-0.7150909473927836	0.0	1.0818656800803355	-0.3877626723862206	0.0	1.0832397506100462	-0.3406350148383939	0.0	1.1057608582590364	-0.36383577722104776	0.0	1.0763540079340028	-0.4009160582563181	0.0	1.110749297371216	-0.33896767025453917	0.0	1.1233165446468556	-0.28099126294872234	0.0	1.085305900549636	-0.4021134174578481	0.0	1.107831415323351	-0.3633127125180103	0.0	1.1151075464065965	-0.4849751498211909	0.0
25	0.4173011844331641	1.0793655127357218	-0.5282212594277725	0.0	1.0732665680702556	-0.528125487509776	0.0	1.068005418867062	-0.6249986001750812	0.0	1.0479772689025821	-0.7126233928595537	0.0	1.0814390119139496	-0.7164418517814201	0.0	1.075490917393392	-0.719579374781063	0.0	1.0443657911411361	-0.7206278548427992	0.0	1.0805886216051654	-0.5287142912089869	0.0	1.0740180235275492	-0.6249476922005096	0.0	1.0527792910097347	-0.7091295863575363	0.0	1.0871525529021628	-0.7145695593955343	0.0	1.0800368644293816	-0.7124448363584044	0.0	1.0401348188595694	-0.7154818568423637	0.0	1.0820651625070243	-0.38754627293400623	0.0	1.08366945643214	-0.340249708445502	0.0	1.1061240733234015	-0.3634624082844545	0.0	1.076379955166136	-0.40085322927226097	0.0	1.1113909307280827	-0.3388598072212519	0.0	1.124444083010384	-0.28076535485911025	0.0	1.0857427113664284	-0.4019301509896752	0.0	1.108553283135616	-0.36090492365365323	0.0	1.1159855484524985	-0.480590109340573	0.0
26	0.43399323181049065	1.079429159316712	-0.5281260729835591	0.0	1.073267520592535	-0.5280378044181039	0.0	1.0679701604691756	-0.6251432342714632	0.0	1.0481282984528633	-0.7131213821750512	0.0	1.0821350901808025	-0.7170182762755546	0.0	1.0755700185648087	-0.7201183161944831	0.0	1.0443698828469694	-0.7212053092034858	0.0	1.0808162890691466	-0.5286373989869664	0.0	1.0739632633151488	-0.6250983344393797	0.0	1.0529084805868971	-0.7096468339958294	0.0	1.0879547891183836	-0.7150134548362368	0.0	1.0805849247631745	-0.712778294548761	0.0	1.040329349142883	-0.7159898324738769	0.0	1.0822959659701081	-0.38732852965947623	0.0	1.0841935946388135	-0.3398180004264099	0.0	1.106597274437306	-0.36304547931232334	0.0	1.0764315683971848	-0.40078023389248385	0.0	1.1121570009367356	-0.33879036240622384	0.0	1.125843467402516	-0.28063722064985475	0.0	1.0861870926075572	-0.4017522048290464	0.0	1.1091672886682544	-0.35918536176962595	0.0	1.116830591185609	-0.47571885922816	0.0
27	0.4506852791878172	1.0794737020463703	-0.5280345860678495	0.0	1.0732828422455012	-0.5279658479852324	0.0	1.0679202127646197	-0.6253420467342263	0.0	1.0482631876442687	-0.7137265869820754	0.0	1.0829021987564484	-0.7177041063393899	0.0	1.0755554052514835	-0.7207673604036878	0.0	1.0443437619019675	-0.7218889045601952	0.0	1.081035418136887	-0.5285897241098234	0.0	1.0738793436785632	-0.6252904875883759	0.0	1.0530075825277787	-0.7102673296743178	0.0	1.0888233494305706	-0.7155427985005958	0.0	1.0811717996227328	-0.7131854767143014	0.0	1.0405122378269873	-0.7165976907772226	0.0	1.0825558786976566	-0.38709770617146494	0.0	1.0848035813493924	-0.3393506860155157	0.0	1.1071745772890587	-0.3625984006362353	0.0	1.076512886600942	-0.40068381451338436	0.0	1.1130620029001344	-0.3387879221025291	0.0	1.1275490117942804	-0.2806574453215366	0.0	1.0866381136750232	-0.401568311921253	0.0	1.1095727337792007	-0.3586498401380737	0.0	1.1175459657430296	-0.47121874587685725	0.0
28	0.4673773265651438	1.0794856044936016	-0.5279351300824618	0.0	1.0733071619476113	-0.527905409615748	0.0	1.0678618790901306	-0.6255824138182358	0.0	1.0483821893595675	-0.7144098895222539	0.0	1.0837094024690899	-0.7184605561378888	0.0	1.0754367382168812	-0.7214877498103454	0.0	1.0442897892245278	-0.722642440635668	0.0	1.0812326421645224	-0.5285595401235376	0.0	1.0737698584072626	-0.6255112153299712	0.0	1.0530728209221127	-0.7109582525681426	0.0	1.0897330709449466	-0.7161174085525405	0.0	1.081783237132707	-0.7136291475377599	0.0	1.0406789905669624	-0.7172707699891184	0.0	1.0828350791654722	-0.38684597202705834	0.0	1.0854788402279594	-0.3388686108922704	0.0	1.107836134504476	-0.3621404358951621	0.0	1.0766253881720167	-0.4005530648784493	0.0	1.1141141032473054	-0.3388830643267086	0.0	1.1295957191928856	-0.2808825596188089	0.0	1.087087114452655	-0.4013696557979411	0.0	1.1096457669674091	-0.3597026753336673	0.0	1.118019999930317	-0.46825301199586156	0.0
29	0.48406937394247035	1.0794499840974514	-0.5278173518766287	0.0	1.0733322194984278	-0.5278532034251325	0.0	1.067800891302602	-0.62584439215204	0.0	1.0484937455509926	-0.7151294856740887	0.0	1.0845175130966498	-0.7192349651288014	0.0	1.0752190202101197	-0.7222268580203745	0.0	1.0442162602294884	-0.7234145389635671	0.0	1.0813904675538226	-0.5285347060340801	0.0	1.0736376491949002	-0.6257408374813169	0.0	1.0531067211538563	-0.7116770739070092	0.0	1.0906467023152606	-0.7166920305256905	0.0	1.0823982974435868	-0.7140708361545614	0.0	1.040826855858338	-0.7179646790696129	0.0	1.0831170559216434	-0.3865756758566757	0.0	1.0861930628683014	-0.3383970301357208	0.0	1.1085529997787151	-0.3616969618207391	0.0	1.076766885436106	-0.4003819926139608	0.0	1.115316404125291	-0.3391088884783732	0.0	1.1320178774250809	-0.2813693035336089	0.0	1.0875175746062937	-0.4011542302045775	0.0	1.1092552187823421	-0.36258746178088586	0.0	1.118141416422734	-0.46774440759957675	0.0
30	0.500761421319797	1.0793496246649907	-0.5276755883412132	0.0	1.073345899146864	-0.5278068851670231	0.0	1.067740375352239	-0.6261049213536195	0.0	1.0486053365001382	-0.7158410684142854	0.0	1.0852751310624111	-0.7199721679830751	0.0	1.0749140727080926	-0.7229268951016745	0.0	1.044134001709842	-0.7241479558784144	0.0	1.0814844066015163	-0.5285082860995505	0.0	1.0734801719821832	-0.6259573260977254	0.0	1.053113299311054	-0.71238175698418	0.0	1.0915087816562452	-0.7172275637491938	0.0	1.0829804328690988	-0.7144804485205841	0.0	1.0409513425045374	-0.7186355068562739	0.0	1.0833817397899683	-0.38630320251832434	0.0	1.0869222320614342	-0.33795729577942174	0.0	1.1092936911456472	-0.3612981170166437	0.0	1.0769315093313303	-0.40017085225782434	0.0	1.1166692968544314	-0.3395006762013162	0.0	1.1348448823631014	-0.28217155899348606	0.0	1.0879054685807608	-0.40092783155933814	0.0	1.108289130319853	-0.3673751211519407	0.0	1.1178225208136707	-0.46967467932715623	0.0
